<svg width="256" height="256" viewBox="0 0 256 256" xmlns="http://www.w3.org/2000/svg" role="img" aria-labelledby="title desc">
  <title id="title">Divan mascot</title>
  <desc id="desc">A navy owl face with large white eyes wearing a bright red graduation cap.</desc>
  <rect width="256" height="256" fill="#f7f3ea" rx="36" />
  <g fill="#e43d3d">
    <path d="M48 76 128 40l80 36-80 32z" />
    <path d="M200 78v42c0 6 6 10 14 10v14c-21 0-38-12-38-28V92Z" />
  </g>
  <path d="M128 72c-52 0-92 38-92 94 0 46 30 84 92 118 62-34 92-72 92-118 0-56-40-94-92-94Z" fill="#0f2445" />
  <path d="M128 100c-36 0-64 26-64 62 0 30 20 56 64 82 44-26 64-52 64-82 0-36-28-62-64-62Z" fill="#fff" />
  <g fill="#0f2445">
    <circle cx="96" cy="158" r="34" />
    <circle cx="160" cy="158" r="34" />
    <path d="M128 186c-12 0-22 6-22 18 0 4 2 8 4 10 6 6 12 10 18 14 6-4 12-8 18-14 2-2 4-6 4-10 0-12-10-18-22-18Z" />
  </g>
  <g fill="#fff">
    <circle cx="96" cy="152" r="22" />
    <circle cx="160" cy="152" r="22" />
  </g>
  <g fill="#0f2445">
    <circle cx="96" cy="156" r="12" />
    <circle cx="160" cy="156" r="12" />
  </g>
  <path d="M128 164c-6 0-12 6-12 12 0 4 4 8 12 12 8-4 12-8 12-12 0-6-6-12-12-12Z" fill="#f7f3ea" />
  <path d="M128 86c17 0 34 5 48 14l-10 20c-12-8-24-12-38-12s-26 4-38 12l-10-20c14-9 31-14 48-14Z" fill="#0f2445" opacity="0.3" />
</svg>
