<svg xmlns="http://www.w3.org/2000/svg" width="1200" height="600" viewBox="0 0 1200 600">
  <defs>
    <linearGradient id="storyGrad" x1="0" x2="1" y1="0" y2="1">
      <stop offset="0%" stop-color="#a855f7"/>
      <stop offset="100%" stop-color="#c084fc"/>
    </linearGradient>
  </defs>
  <rect width="1200" height="600" fill="url(#storyGrad)"/>
  <!-- Decorative circles -->
  <circle cx="180" cy="160" r="100" fill="#fff" fill-opacity="0.12" />
  <circle cx="350" cy="200" r="70" fill="#fff" fill-opacity="0.08" />
  <circle cx="1020" cy="420" r="110" fill="#fff" fill-opacity="0.10" />
  <!-- Book/pen decorative elements -->
  <g fill="none" stroke="#ffffff" stroke-width="6" stroke-linecap="round" stroke-linejoin="round" opacity="0.25">
    <!-- Open book -->
    <path d="M880 100 L880 200 Q920 180 960 200 L960 100 Q920 120 880 100" />
    <!-- Pen -->
    <path d="M1040 120 L1080 180 M1080 120 L1040 180" />
    <!-- Heart -->
    <path d="M1120 140 Q1130 120 1150 140 Q1170 120 1180 140 Q1180 170 1150 190 Q1120 170 1120 140" />
  </g>
  <text x="80" y="320" font-family="Inter, Segoe UI, Arial, sans-serif" font-size="64" font-weight="800" fill="#ffffff">Story Builder</text>
  <text x="80" y="390" font-family="Inter, Segoe UI, Arial, sans-serif" font-size="28" font-weight="500" fill="#ffffff" fill-opacity="0.9">Collaborative romance. Write together.</text>
</svg>