<svg xmlns="http://www.w3.org/2000/svg" viewBox="0 0 512 720" role="img" aria-label="McGill University crest">
  <title>McGill University crest</title>
  <defs>
    <path id="martlet" d="M0-18c16 2 35 18 44 35-6-2-13-3-21 0 11 8 21 23 11 36-9 12-30 8-34-7-3-12 6-23 6-23s-16 6-22-6c-4-9 5-18 12-21-11 1-18-11-11-20 5-7 14-10 25-9z" />
    <path id="crown" d="M0 0h96l-10-18 6-6-6-8-10 6-8-16-12 8-12-8-8 16-10-6-6 8 6 6-10 18zm8 8c0 8 14 18 40 18s40-10 40-18z" />
    <path id="ribbon" d="M88 456c30 56 98 104 168 104s138-48 168-104l-16-10C380 512 320 548 256 548S132 512 104 446Z" />
  </defs>
  <g fill="#d22630">
    <path d="M256 12C175 12 92 37 54 62v192c0 116 83 232 202 290 119-58 202-174 202-290V62C420 37 337 12 256 12Z" />
    <path d="M62 104v170c0 80 78 163 194 213 116-50 194-133 194-213V104L256 154 62 104Z" fill="#fff" />
    <path d="M62 104 256 154 450 104v64l-93-26-101 56-101-56-63 18z" />
  </g>
  <g fill="#fff">
    <use href="#crown" x="82" y="60" />
    <use href="#crown" x="334" y="60" />
    <rect x="200" y="48" width="112" height="74" rx="4" ry="4" stroke="#d22630" stroke-width="6" fill="#fff" />
    <path d="M200 84h112" stroke="#d22630" stroke-width="6" />
    <path d="M256 48v78" stroke="#d22630" stroke-width="4" />
  </g>
  <g fill="#d22630" font-family="serif" font-weight="700" font-size="20" text-anchor="middle">
    <text x="230" y="74">IN</text>
    <text x="230" y="104">DOM</text>
    <text x="282" y="74">CON</text>
    <text x="282" y="104">FIDO</text>
  </g>
  <g fill="#d22630">
    <use href="#martlet" x="176" y="262" />
    <use href="#martlet" x="250" y="292" />
    <use href="#martlet" x="324" y="262" />
  </g>
  <g fill="none" stroke="#d22630" stroke-width="5" transform="translate(0,6)">
    <path d="M74 460c44 64 116 118 182 118s138-54 182-118l-30-18C368 504 318 540 256 540s-112-36-152-98z" fill="#fff" />
    <path d="M90 452c18 10 48 22 86 24" />
    <path d="M422 452c-18 10-48 22-86 24" />
  </g>
  <text font-family="serif" font-size="24" font-weight="700" fill="#d22630">
    <textPath href="#ribbon" startOffset="50%" text-anchor="middle">GRANDESCUNT   AUCTA LABORE</textPath>
  </text>
</svg>
