<?xml version="1.0" encoding="UTF-8"?>
<svg xmlns="http://www.w3.org/2000/svg" width="512" height="512" viewBox="0 0 512 512" role="img" aria-label="uniHood">
  <!-- iOS home-screen icon: add a little padding for nicer framing -->
  <rect x="0" y="0" width="512" height="512" rx="96" ry="96" fill="#f8f8f8"/>

  <!-- Roof - left side (navy) -->
  <path d="M 80 210 L 256 100 L 256 145 L 115 235 Z" fill="#1e4a6d"/>
  
  <!-- Roof - right side (crimson) -->
  <path d="M 256 100 L 432 210 L 397 235 L 256 145 Z" fill="#a12035"/>

  <!-- U letter (crimson) -->
  <path d="M 115 275 L 115 375 Q 115 435 185 435 L 220 435 Q 290 435 290 375 L 290 275 L 235 275 L 235 365 Q 235 395 200 395 L 185 395 Q 170 395 170 365 L 170 275 Z" fill="#a12035"/>

  <!-- H letter (navy) -->
  <path d="M 310 275 L 310 435 L 360 435 L 360 375 L 405 375 L 405 435 L 455 435 L 455 275 L 405 275 L 405 325 L 360 325 L 360 275 Z" fill="#1e4a6d"/>
</svg>
