<?xml version="1.0" encoding="UTF-8"?>
<svg xmlns="http://www.w3.org/2000/svg" width="512" height="512" viewBox="0 0 512 512" role="img" aria-label="uniHood">
  <defs>
    <style>
      .navy { fill: #1e4a6d; }
      .crimson { fill: #a12035; }
    </style>
  </defs>

  <!-- Roof - left side (navy) -->
  <path class="navy" d="M 60 200 L 256 80 L 256 130 L 100 230 Z"/>
  
  <!-- Roof - right side (crimson) -->
  <path class="crimson" d="M 256 80 L 452 200 L 412 230 L 256 130 Z"/>

  <!-- U letter (crimson) -->
  <path class="crimson" d="M 100 270 L 100 380 Q 100 450 180 450 L 220 450 Q 300 450 300 380 L 300 270 L 240 270 L 240 370 Q 240 400 200 400 L 180 400 Q 160 400 160 370 L 160 270 Z"/>

  <!-- H letter (navy) -->
  <path class="navy" d="M 320 270 L 320 450 L 375 450 L 375 380 L 425 380 L 425 450 L 480 450 L 480 270 L 425 270 L 425 330 L 375 330 L 375 270 Z"/>
</svg>
